Coordinates
version=1
nRows=14
nColumns=24
inDegrees=yes

Units are S.I. units (second, meters, Newtons, ...)
Angles are in degrees.

endheader
time	pelvis_tilt	pelvis_list	pelvis_rotation	pelvis_tx	pelvis_ty	pelvis_tz	hip_flexion_r	hip_adduction_r	hip_rotation_r	knee_angle_r	ankle_angle_r	subtalar_angle_r	mtp_angle_r	hip_flexion_l	hip_adduction_l	hip_rotation_l	knee_angle_l	ankle_angle_l	subtalar_angle_l	mtp_angle_l	lumbar_extension	lumbar_bending	lumbar_rotation
      3.32500000	     -1.94134101	      6.03779348	     -0.55697792	     -0.49268292	      0.93691920	      0.18144632	     24.21809634	     -5.74292017	      0.04296292	    -65.95981224	     11.02017144	    -13.57316969	      0.00000000	     13.66859033	     13.06783147	      2.26604639	    -23.64744636	     20.16921643	    -10.12992009	      0.00000000	    -11.57913013	     -9.63421810	    -11.90825607
      3.33000000	     -1.87322921	      5.79511598	     -0.33623996	     -0.48596720	      0.93829779	      0.18074501	     24.61070132	     -5.49062624	      0.00291545	    -64.82641946	     11.44989017	    -13.32674374	      0.00000000	     12.83424406	     12.90835023	      2.72100000	    -23.16065897	     20.15233417	    -10.22399806	      0.00000000	    -11.66764698	     -9.27231937	    -12.11933282
      3.33500000	     -1.83313300	      5.56084515	     -0.12215692	     -0.47924865	      0.93954421	      0.18001845	     25.00686417	     -5.25132963	     -0.04117806	    -63.61174419	     11.79019073	    -13.21162840	      0.00000000	     12.04398508	     12.74564815	      3.11021839	    -22.68417608	     20.14800553	    -10.31419774	      0.00000000	    -11.71275778	     -8.91178098	    -12.29711294
      3.34000000	     -1.79881975	      5.34063946	      0.11015675	     -0.47254050	      0.94070072	      0.17931977	     25.37529261	     -5.02641323	     -0.09172473	    -62.31503336	     12.04797295	    -13.21870401	      0.00000000	     11.26603021	     12.58839473	      3.49192199	    -22.21109523	     20.13882426	    -10.40848054	      0.00000000	    -11.75370098	     -8.57614376	    -12.49678180
      3.34500000	     -1.77464194	      5.13774889	      0.34523423	     -0.46584215	      0.94175222	      0.17861932	     25.72455581	     -4.81863471	     -0.13318969	    -60.94107671	     12.23670308	    -13.33113337	      0.00000000	     10.50833937	     12.44165670	      3.85584237	    -21.74452951	     20.12315873	    -10.50428784	      0.00000000	    -11.78217375	     -8.26051845	    -12.70145183
      3.35000000	     -1.74746836	      4.95256567	      0.59392503	     -0.45913135	      0.94271350	      0.17789040	     26.03506525	     -4.63484665	     -0.17260827	    -59.49005971	     12.36731649	    -13.53599074	      0.00000000	      9.75327604	     12.31112993	      4.21811069	    -21.28441441	     20.10097327	    -10.61738881	      0.00000000	    -11.80943371	     -7.95953317	    -12.92114141
      3.35500000	     -1.76318947	      4.77178349	      0.83344445	     -0.45242302	      0.94351343	      0.17717404	     26.36472280	     -4.45705005	     -0.20933845	    -57.96669646	     12.45667631	    -13.81010101	      0.00000000	      9.05915834	     12.17632217	      4.52657039	    -20.83803745	     20.08784874	    -10.73474772	      0.00000000	    -11.77952165	     -7.66674261	    -13.08487823
      3.36000000	     -1.73932354	      4.61519941	      1.10953108	     -0.44571325	      0.94429096	      0.17647158	     26.60968895	     -4.30985097	     -0.25060745	    -56.36576653	     12.48202183	    -14.17224271	      0.00000000	      8.31796437	     12.06581648	      4.90079197	    -20.38726268	     20.05232317	    -10.88387124	      0.00000000	    -11.80328909	     -7.40923186	    -13.34169088
      3.36500000	     -1.73408026	      4.47384026	      1.37649438	     -0.43901543	      0.94493776	      0.17575999	     26.84720568	     -4.17732371	     -0.26440424	    -54.69986831	     12.49334756	    -14.55435908	      0.00000000	      7.60829334	     11.96736011	      5.25136273	    -19.94745579	     20.00868356	    -11.05043536	      0.00000000	    -11.80392030	     -7.16205956	    -13.57416996
      3.37000000	     -1.67172167	      4.37198903	      1.67696977	     -0.43232262	      0.94558346	      0.17503450	     26.98606042	     -4.10151047	     -0.28434368	    -52.97082018	     12.48294867	    -14.93994672	      0.00000000	      6.82538815	     11.91041743	      5.67743709	    -19.48958786	     19.92145916	    -11.26792528	      0.00000000	    -11.88186579	     -6.96447249	    -13.89400834
      3.37500000	     -1.70951556	      4.24548593	      1.94191423	     -0.42560986	      0.94597089	      0.17432762	     27.20661679	     -3.99508230	     -0.28414850	    -51.17196984	     12.44884131	    -15.34751532	      0.00000000	      6.17808472	     11.82147198	      5.99594370	    -19.06817073	     19.88464293	    -11.49015247	      0.00000000	    -11.82304281	     -6.73806926	    -14.08325520
      3.38000000	     -1.70439716	      4.14092999	      2.24345385	     -0.41890859	      0.94635236	      0.17364058	     27.34027989	     -3.92676309	     -0.30180694	    -49.30572658	     12.38348019	    -15.74536119	      0.00000000	      5.47766565	     11.75299999	      6.39350057	    -18.63931013	     19.80975963	    -11.75880376	      0.00000000	    -11.82712809	     -6.54704385	    -14.35479977
      3.38500000	     -1.64913423	      4.07995522	      2.55535828	     -0.41222182	      0.94671949	      0.17289842	     27.38928442	     -3.91702307	     -0.29624044	    -47.39257305	     12.34045816	    -16.04828135	      0.00000000	      4.70933989	     11.73271833	      6.85333716	    -18.18394898	     19.67092245	    -12.10517397	      0.00000000	    -11.90184250	     -6.39129858	    -14.67228420
      3.39000000	     -1.68540482	      3.99067316	      2.83670107	     -0.40552455	      0.94684914	      0.17223444	     27.51088019	     -3.87755200	     -0.29818010	    -45.41448788	     12.26797852	    -16.34384811	      0.00000000	      4.07170405	     11.67447597	      7.21423765	    -17.77777921	     19.60078190	    -12.42369714	      0.00000000	    -11.85209717	     -6.22293769	    -14.88193498
